<?xml version="1.0" encoding="utf-8"?>
<!-- Generator: Adobe Illustrator 26.0.0, SVG Export Plug-In . SVG Version: 6.00 Build 0)  -->
<svg version="1.1" id="Calque_1" xmlns="http://www.w3.org/2000/svg" xmlns:xlink="http://www.w3.org/1999/xlink" x="0px" y="0px"
	 viewBox="0 0 640 480" style="enable-background:new 0 0 640 480;" xml:space="preserve">
<style type="text/css">
	.st0{fill:#BEBEBE;}
	.st1{fill:#D7D7D7;}
	.st2{fill:#E0E0E0;}
	.st3{fill:#DDDDDD;}
	.st4{fill:#E3E3E3;}
	.st5{fill:#DEDEDE;}
	.st6{fill:#DCDCDC;}
	.st7{fill:#DADADA;}
	.st8{fill:#FEFEFE;}
	.st9{fill:#BFBFBF;}
	.st10{fill:#C1C1C1;}
	.st11{fill:#D5D5D5;}
	.st12{fill:#CACACA;}
	.st13{fill:#010101;}
	.st14{fill:#020202;}
	.st15{fill:#070707;}
	.st16{fill:#080808;}
	.st17{fill:#040404;}
	.st18{fill:#030303;}
	.st19{fill:#090909;}
	.st20{fill:#060606;}
	.st21{fill:#050505;}
	.st22{fill:#181818;}
	.st23{fill:#131313;}
	.st24{fill:#BBBBBB;}
	.st25{fill:#1C1C1C;}
	.st26{fill:#D9D9D9;}
	.st27{fill:#666666;}
	.st28{fill:#EAEAEA;}
	.st29{fill:#F0F0F0;}
	.st30{fill:#1E1E1E;}
	.st31{fill:#939393;}
	.st32{fill:#595959;}
	.st33{fill:#919191;}
	.st34{fill:#252525;}
	.st35{fill:#FCFCFC;}
	.st36{fill:#F7F7F7;}
	.st37{fill:#E6E6E6;}
	.st38{fill:#E8E8E8;}
	.st39{fill:#F5F5F5;}
	.st40{fill:#A9A9A9;}
	.st41{fill:#0E0E0E;}
	.st42{fill:#101010;}
</style>
<g>
	<path class="st0" d="M213.12,438.26c-1.66-0.81-3.33-1.62-5.01-2.43c-11.89-4.82-21.65-11.51-32.37-17.33
		c-6.3-3.42-12.13-7.26-20.2-8.77c-9.82-2.87-20.85-3.12-30.16-7.38c-10.77-4.95-15.92-11.52-16.11-20.09
		c-0.17-7.14-0.12-14.28-0.02-21.41c0.1-6.66-1.95-12.59-10.72-16.57c-10.06-3.27-20.06-1.33-30.09,0.1
		c-3.99,0.81-8.19,0.61-12.23,1.16c-6.58,0.23-12.95-1.06-19.49-1.14c-6.49,0.1-11.18-2.31-15.56-5.15
		c-4.26-3.07-8.89-5.89-13.13-8.99c-10.64-7.74-9.5-21.14-2.63-28.46c12.42-13.23,14.49-26.86,2.02-40.74
		c-10.14-19.3-6.39-38.6,0.87-57.69c5.45-14.36,14.73-27.65,27.64-39.8c11.47-10.8,26.98-17.3,44.84-21.66
		c4.49-1.1,8.9-2.43,13.59-3.12c9.04-1.58,17.38-3.65,18.6-11.28c1.05-6.6-1.75-10.33-10.24-13.46c-6.18-2.29-12.84-4.03-18.4-7.02
		c-5.35-2.89-10.21-6.12-12.47-10.71c-0.15-0.59-0.34-1.18-0.54-1.77c-0.37-2-0.1-3.77,3.33-4.45c3.45-0.01,4.94,1.64,6.07,3.47
		c3.33,5.51,9.51,9,17.19,11.48c3.08,0.99,6.01,2.2,9.14,3.11c10.7,3.15,16.09,8.49,16.67,16.57c0.61,8.6-6.25,13.65-15.9,17.68
		c-4.37,1.83-9.06,3.33-14.05,4.1c-33.3,5.12-52.82,20.34-65.97,40.68c-10.33,15.98-15.31,32.69-16.24,49.97
		c-0.53,9.77,3.45,19.15,9.48,27.96c7.68,11.23,7.12,22.01-2.14,32.64c-1.44,1.65-2.57,3.44-3.82,5.18
		c-11.54,15.93,0.75,31.92,26.89,35.04c10.87,1.29,21.48-0.3,32.11-1.43c4.23-0.45,8.43-0.65,12.69-0.79
		c20.34-0.69,30.56,7.28,33.2,21.03c0.99,5.12,0.8,10.41-0.68,15.58c-1.55,5.45-0.2,10.78,1.99,16.01c2,4.76,6.54,8.04,13.44,9.74
		c0.8,0.2,1.58,0.49,2.41,0.57c23.73,2.14,40.95,12.14,58.75,21.86c29.22,15.94,60.62,29.89,91.73,44.07
		c19.81,9.02,39.81,8.4,60.21,0.68c32.06-12.13,62.62-25.77,91.42-41.2c7.14-3.82,13.61-8.17,20.44-12.24
		c10.74-6.39,22.73-10.68,36.8-12.5c19.96-2.59,25.28-6.89,25.79-20.71c0.34-9.07,0.09-18.14,0.07-27.22c0-3.73-1.22-7.26-3.28-10.7
		c-2.67-4.47-5.52-8.9-7.76-13.47c-5.33-10.87-0.31-19.27,14.73-24.63c14.83-5.28,30.67-9.19,45.16-14.92
		c25.33-10.03,44.75-23.51,53.86-43.02c4.43-9.49,4.2-18.81-2.84-27.52c-11.71-14.51-14.19-29.45-7.03-45.27
		c2.6-5.73,3.06-11.79,3.91-17.72c1.68-11.79-4.83-19.05-21.44-24.34c-7.71-2.45-15.58-4.59-22.24-8.38
		c-9.33-5.31-12.22-11.75-8.8-19.67c1.21-2.81,2.92-5.44,4.86-8.01c7.14-9.47,9.33-19.3,5.42-29.74c-3.52-9.39-1.31-18.79,0.7-28.16
		c2.43-11.32-3.38-19.31-18.16-24.89c-2.58-0.97-5.03-1.88-4.74-4.28c1.36-2.35,4.3-2.22,7.22-2.15
		c19.83,4.12,28.49,19.68,25.5,32.12c-2.21,9.21-3.86,18.34-0.88,27.68c3.25,10.14,2.87,20.22-4.89,29.63
		c-1.53,1.85-2.63,3.84-3.67,5.83c-5.11,9.97-1.39,16.14,12.73,20.65c7.41,2.37,14.71,4.83,21.76,7.72
		c11.13,4.56,14.8,11.75,16.28,19.8c1.53,8.34-1.6,16.42-3.43,24.56c-5.71,14.25-5.01,28.17,5.91,41.2
		c12.69,15.14,7.87,29.79-2.91,43.79c-14.61,19.01-37.19,32.68-66.18,41.14c-6.18,1.81-12.22,3.77-18.23,5.79
		c-4.4,1.78-9.38,2.75-13.74,4.56c-8.87,3.67-11.15,7.71-9.04,14.56c2.45,7.95,9.34,14.86,11.25,22.9
		c1.43,6.05,1.77,12.11-0.03,18.2c-1.46,4.96-0.73,10.01-0.54,15.01c0.59,17.03-11.38,24.59-33.08,26.86
		c-15.7,1.64-27.08,7.15-38.01,13.96c-18.5,11.51-38.26,21.87-59.63,30.79c-15.17,6.31-29.49,13.62-45.48,18.97
		c-9.75,3.26-19.44,6.57-30.63,7.83c-11.25,1.26-21.19-0.42-30.84-3.47c-19.47-6.17-35.87-15.64-53.67-23.62
		C231.18,446.86,222.46,442.25,213.12,438.26z"/>
	<path class="st1" d="M623.63,172.92c-0.58-6.82,3.65-13.18,3.6-20.05c-0.1-13.16-7.71-22.58-25.84-27.85
		c-5.96-1.73-12.16-3.11-17.43-5.93c-8.43-4.53-11.43-9.73-8.78-16.75c0.85-2.24,1.63-4.59,3.28-6.56c8.82-10.49,9.51-21.63,6-33.08
		c-2.74-8.91-0.95-17.62,1.09-26.41c3.16-13.59-6.56-26-23.23-30.19c-14.93-1.49-29.85-0.69-44.51,1.07
		c-20.32,2.44-40.37,1.74-60.67,0.03c-22.07-1.86-44.31-2.63-66.57-0.97c-3.62,0.27-7.31,1.05-10.45-0.97
		c0.05-3.59,4.77-2.59,7.37-3.1c7.32-1.43,14.95-1.48,22.56-1.29c17.87,0.44,35.71,1.24,53.45,2.9l0,0
		c19.76,1.14,39.48,1.17,59.06-1.17c3.58-0.43,7.39,0.06,10.77-1.14c6.24,0.06,12.54-0.22,18.71,0.24
		c23.39,1.74,39.77,14.88,37.07,31.55c-2.12,13.14-2.41,26.04,0.54,39.04c1.77,7.76-1.43,14.89-6.08,21.84
		c-1.77,2.62-3.74,5.25-4.88,8c-3.36,8.08-0.58,12.18,10.36,16.18c7.99,2.92,15.95,5.87,23.9,8.86c9.07,3.41,14.1,8.74,15.75,15.62
		c2.62,9.82,0.65,19.45-2.63,29.01C625.82,172.68,624.93,173.06,623.63,172.92z"/>
	<path class="st2" d="M400.48,450.92c12.45-7.29,27.18-12.49,39.4-20.01c9.23-5.67,19.18-10.79,28.46-16.43
		c7.9-4.78,17.06-7.42,27.25-8.82c27.52-3.77,34.81-9.56,34.2-28.84c-0.31-9.8,3.75-19.49,0.66-29.36
		c-1.97-6.29-5.76-12.07-8.73-18.09c-6.71-13.56-2.75-19.37,16.9-24.58c1.58-0.42,3.25-0.66,4.88-0.98c1.73-0.76,3.48-0.9,5.2,0.02
		c-4.77,1.68-9.48,3.45-14.36,4.99c-10.06,3.18-13.68,7.55-11.25,14.82c1.26,3.73,2.82,7.56,5.4,10.93
		c7.66,9.95,7.25,20.38,5.64,31.06c-0.71,4.78-0.71,9.61-0.78,14.43c-0.24,19.7-13.57,24.9-34.56,27.57
		c-13.93,1.78-25.08,6.02-34.68,12.35c-17.79,11.72-38.01,21.23-58.09,30.87c-1.53,0.73-3.69,0.86-5.56,1.26
		c-0.61-0.27-0.82-0.53-0.63-0.8C400.09,451.06,400.28,450.92,400.48,450.92z"/>
	<path class="st3" d="M548.73,303.83c-1.73-0.01-3.47-0.01-5.2-0.02c9.21-4.61,20.47-6.39,30.28-10.33
		c29.82-11.95,51.26-28.18,61.04-51.14c3.98-9.31,2.04-18.01-4.3-26.31c-10.58-13.82-13.47-28.09-6.91-43.11
		c6.05-9.69,5.23-19.93,5.11-30.12c4.74,9.37,2.12,18.76-1.19,27.83c-5.28,14.5-6.47,28.56,5.06,41.9
		c17.82,20.61,0.1,47.05-19.06,61.9C595.64,288.32,573.51,297.27,548.73,303.83z"/>
	<path class="st2" d="M95.62,139.31c-9.19,2.51-18.47,4.85-27.54,7.54c-20.39,6.05-32.42,17.69-42.49,30.4
		C7.17,200.49-0.22,225.2,5.2,251.47c0.66,3.21,2.36,6.32,3.57,9.49c0.68,1.92,3.45,3.57,1.68,5.81c-5.76-4.98-9.06-10.8-9.7-16.95
		c-1.82-17.41-0.7-34.7,7.75-51.43c8.26-16.33,17.98-32.21,37.24-44.08c14.07-8.65,30.58-14.56,49.87-16.18
		c0.44,0.25,0.58,0.51,0.44,0.77C95.89,139.17,95.75,139.31,95.62,139.31z"/>
	<path class="st4" d="M463.53,3.79c-19.37-0.76-38.7-1.76-58.09-2.21c-8.65-0.2-17.47,0.37-25.38,3.35
		c-9.62,5.96-21.2,5.57-32.91,4.64c-7.73-0.61-15.04-2.66-22.8-3.2c-7.34-1.62-14.9-2.01-22.55-2.01c-26.22,0-52.45,0.01-78.66,0
		c-9.31,0-18.6,0.06-27.91-0.03c-3.28-0.03-6.9,0.5-9.36-1.71c2.55-1.03,5.37-1.13,8.22-1.14c24.64-0.08,49.22-1.18,73.87-1.4
		c21.85-0.2,43.6-0.27,64.93,2.78c12.28,1.76,24.52,4.26,36.66,1.57c17.07-3.78,34.4-4.93,51.99-4
		C435.57,1.19,449.87,0.82,463.53,3.79z"/>
	<path class="st5" d="M400.48,450.92c0,0.4,0.02,0.8,0.02,1.2c-20.59,10.66-42.37,20.08-66.75,26.04
		c-16.41,4.02-32.25,0.99-47.32-4.7c-17.16-6.48-32.26-14.95-48.47-22.35c-8.65-3.95-18.35-6.98-24.86-12.85
		c11.86,1.81,19.47,8.31,29.26,12.42c13.25,5.56,25.81,11.88,38.62,17.91c23.26,10.93,46.82,10.54,71.26,1.64
		c13.29-4.84,25.62-10.62,38.4-15.98C393.8,452.93,396.76,451.41,400.48,450.92z"/>
	<path class="st5" d="M56.44,344.39c4.06,0.01,8.12,0.05,11.91-1.18c10.23-0.28,20.47-3.76,30.7,0c8.87,3.72,12.01,9.36,11.93,16.15
		c-0.08,7.5-0.2,15,0.03,22.48c0.36,11.57,10.31,19.95,26.79,22.99c6.52,1.2,13.3,1.89,19.18,4.39c-2.29,1.01-4.59,0.82-6.88,0.02
		c-18.15-0.95-37.9-8.71-41.37-20.04c-1.48-4.81-0.93-9.58-1.21-14.37c-0.39-6.91,0.99-13.87-1.39-20.73
		c-2.24-6.47-7.51-9.51-17.13-9.75c-10.26-0.27-20.25,1.36-30.39,1.85c-14.42,0.68-29.17,1.49-39.65-7.61
		c1.14-0.75,2.26-0.65,3.38,0.01c3.98,2.33,8.14,4.44,13.68,4.63C42.83,343.5,49.42,345.73,56.44,344.39z"/>
	<path class="st6" d="M73.46,95.33c0,0.39,0,0.77,0,1.17c0.73,1.91,3.53,3.51,1.72,5.77c-9.8-7.83-10.96-17.17-5.78-25.93
		c7.36-12.42,8.87-24.31,1.19-36.68c-0.63-1.01-0.37-2.26-0.54-3.41c-1.26-5.12-2.12-10.23,1.7-15.08c0.08-1.89,1-3.52,3.38-4.66
		c0.93-0.38,1.78-0.3,2.53,0.22c2.04,2.32,0.31,4.58-0.66,6.67c-3.43,7.37-2.38,14.43,2.11,21.42c6.12,9.56,3.53,18.68-2.21,27.96
		C72.48,79.91,71.58,87.6,73.46,95.33z"/>
	<path class="st4" d="M76.91,16.54c-0.59-0.01-1.19-0.02-1.78-0.03C80,9.57,88.74,6.33,99.34,4.97c3.84-0.5,7.73-0.79,11.6-1.17
		c16.26-1.29,32.57-0.2,48.83-0.6c4.16-0.1,8.43,0.65,12.5-0.55c4.54,0,9.07-0.01,13.61-0.01c12.5,0,25.03,0.01,37.53,0.01
		c-0.49,3.54-4.66,2.84-7.71,2.83c-29.44-0.16-58.8,1.93-88.26,1.28c-11.37-0.24-22.63,0.7-33.25,3.77
		c-4.13,1.21-8.14,2.54-11.37,4.81C81.26,16.41,79.48,17.49,76.91,16.54z"/>
	<path class="st7" d="M75.18,102.27c-0.58-1.92-1.14-3.85-1.72-5.77c5.91,6.85,14.36,11.55,25.11,14.69
		c7.92,2.3,14.71,5.63,16.6,12.05c2.29,7.83-5.2,14.08-19.57,16.07c0-0.38,0-0.77-0.02-1.16c7.08-2.69,15.15-4.55,15.46-11.67
		c0.24-5.48-2.68-9.06-9.8-11.66C91.84,111.38,81.51,108.7,75.18,102.27z"/>
	<path class="st2" d="M150.1,409.24c2.29-0.01,4.59-0.01,6.88-0.02c3.18,0.15,6.18,0.75,8.61,2.15
		c14.17,8.16,29.8,15.14,42.53,24.46c-8.44-0.68-13.85-4.86-19.74-8.25C176.39,420.69,165.16,413.16,150.1,409.24z"/>
	<path class="st4" d="M533.36,1.48c-23,4.58-46.35,4.44-69.83,2.31C486.91,4.49,510.15,3.11,533.36,1.48z"/>
	<path class="st4" d="M172.26,2.63c-5.3,1.92-11.04,1.07-16.6,1.12c-14.92,0.1-29.82,0.03-44.73,0.03c5.88-2,12.18-1.05,18.28-1.11
		C143.56,2.54,157.92,2.63,172.26,2.63z"/>
	<path class="st4" d="M71.75,21.15c-1.53,4.98-1.95,10.01-1.7,15.08C68.01,31.08,66.12,25.91,71.75,21.15z"/>
	<path class="st8" d="M557.13,7.72c18.88,3.7,29.65,13.84,26.62,26.9c-2.77,11.97-3.99,23.7,0.36,35.58
		c2.48,6.79,0.59,13.39-3.82,19.69c-2.45,3.48-4.84,6.99-6.85,10.6c-5.37,9.6-2.48,15.82,10.3,21.28
		c5.49,2.35,11.59,4.06,17.47,5.96c19.88,6.45,26.5,14.96,23.41,29.93c-1.46,7.07-2.85,14.15-5.54,21.08
		c-4.49,11.54-2.87,22.7,5.66,33.09c18.33,22.37,6.61,41.3-14.34,59.07c-17.26,14.64-41.17,22.73-65.85,29.93
		c-4.94,1.44-9.9,2.92-14.68,4.62c-14.17,5.04-19.64,12.4-12.25,21.99c13.66,17.71,10.72,36.38,10.02,54.96
		c-0.49,12.99-6.91,17.87-25.59,19.77c-19.42,1.98-33.78,9.36-47.57,17.9c-32.35,20.01-69.23,35.58-107.34,49.79
		c-18.96,7.08-38.84,7.18-57.43-1.14c-38.16-17.09-76.3-34.25-111.23-54.34c-9.26-5.33-19.37-8.48-30.77-10.49
		c-27.22-4.8-34.73-12.68-31.01-31.96c1.44-7.49,2.09-14.94-2.26-22.24c-4.26-7.14-11.99-10.39-23.04-10.63
		c-12.05-0.27-23.58,2.09-35.44,2.87c-17.33,1.13-37.31-5.89-45.5-16.46c-4.84-6.24-5.13-12.56-0.83-18.93
		c2.72-4.03,5.64-8.01,8.77-11.91c6.69-8.39,6.85-16.78,1.58-25.62c-23.23-39-7.31-73.65,26.78-105.87
		c9.91-9.36,24.81-14.49,41.06-17.6c7.12-1.36,14.19-2.82,20.59-5.41c8.09-3.28,13.24-7.61,12.83-14.51
		c-0.39-6.68-4.47-11.39-13.54-14.1c-3.38-1.01-6.52-2.36-9.94-3.32c-11.32-3.2-18.5-8.72-21.1-16.92c-5.1-2.63-3.64-6.24-2.53-9.53
		c1.14-3.42,2.53-6.81,4.88-10.03c6.83-9.37,5.98-18.93,0.25-28.34c-2.96-4.86-3.57-9.8-2.75-14.89
		c1.68-10.65,9.26-16.67,24.64-19.37c5.44-0.95,11.03-1.5,16.65-1.88c1.53-0.01,3.06-0.01,4.59-0.01
		c22.27-0.47,44.6,1.09,66.82-1.06c19.83,0.6,39.54-1.33,59.35-1.25c11.64,0,23.28,0.17,34.9-0.03c20.29-0.36,40.33,0.07,59.97,4.24
		c10.35,2.2,21.1,1.77,31.36-0.5c20.42-4.51,41.29-3.64,62.06-2.46c32.33,1.84,64.51,4.82,96.93-0.22
		C541,4.78,549.97,3.42,557.13,7.72z"/>
	<path class="st9" d="M555.58,7.2c-12.2-2.36-24.13-0.5-36.14,0.91c-22.27,2.61-44.56,1.64-66.87-0.07
		c-27.9-2.14-55.81-4.28-83.25,2.17c-8.61,2.02-17.72,1.83-25.99,0.12c-26.33-5.45-53.26-4.26-80.11-4.3
		c-5.39-0.01-10.77-0.01-16.14-0.02c-4.62-1.02-9.4-0.17-14.07-0.51c-1.7-0.12-4.08,0.75-4.79-1.22c2.17-1.92,5.25-1.01,7.88-1.02
		c24.58-0.08,49.19,0,73.77-0.08c5.45-0.02,10.57,0.83,15.73,1.76c2.5,0.24,5.1,0.25,7.46,0.77c15.82,3.52,31.47,3.21,46.99-0.76
		c33.16-2.81,66.09-0.42,99.03,2.09c16.5,1.26,32.71-1.29,49-2.6c11.54-0.92,23.14-1.85,34.23,1.68
		C559.96,6.12,557.64,6.27,555.58,7.2z"/>
	<path class="st10" d="M116.07,8.41c-3.35,0.38-6.69,0.79-10.04,1.13c-23.79,2.47-35.66,13.43-27.8,28.83
		c7.19,14.04,7.31,26.89-2.41,40.01c-2.94,3.96-2.8,8.17-0.75,12.35c-1.38,1.4-1.58,2.98-1.61,4.59c-5.54-7.5-4.2-15.21,0.48-22.32
		c6.74-10.28,7.7-20.09,1.05-30.58c-5.44-8.58-2.33-17.37,1.92-25.87c4.69-2.17,8.05-5.57,13.61-6.96
		c8.49-2.45,17.41-3.58,26.59-3.96C119.61,7.05,117.38,7.65,116.07,8.41z"/>
	<path class="st11" d="M99.05,343.2c-10.23-2.16-20.47,0.65-30.7,0C78.58,341.46,88.82,338.76,99.05,343.2z"/>
	<path class="st11" d="M56.44,344.39c-7.14,2.28-13.76,0.42-20.42-1.16C42.91,342.81,49.64,343.95,56.44,344.39z"/>
	<path class="st12" d="M117.77,6.13c-9.09,1.16-18.16,2.3-27.25,3.45c8.58-4.18,18.71-4.66,28.51-4.52
		c31.79,0.44,63.49-1.53,95.26-1.31c3.13,0.02,6.27,0.01,9.09-1.12c28.9,0,57.8-0.01,86.7-0.02c5.42,0,10.81,0.07,15.49,2.31
		c-28.75-2.23-57.61-0.72-86.41-1.11c-3.65-0.05-7.39-0.22-10.75,1.11c-1.43,0.69-3.02,1.1-4.76,1.12
		c-33.44,0.38-66.85,1.89-100.32,1.21C121.34,7.21,119.37,7.12,117.77,6.13z"/>
	<path class="st13" d="M605.75,218.07c9.6,11.96,5.69,22.73-2.48,33.02c-12.15,15.32-32.26,24.6-54.86,31.6
		c-36.48,11.31-75.42,15-114.95,16.95c-33.22,1.64-66.31,0.43-99.46-0.96c-12.05-0.51-24.18-0.08-36.88-0.08
		c6.9-11.42,6.9-11.39,23.11-11.42c43.41-0.06,86.85,1.25,130.14-1.92c34.78-2.55,69.37-5.83,100.8-17.37
		c7.39-2.72,14.7-5.68,19.62-10.95c-16.53,0.45-24.33-1.59-27.06-8.35c-2.92-7.2-5.76-14.62-4.91-22.22
		c2.92-26.02,13.47-50.8,26.78-75.13c1.19-2.17,3.33-3.47,6.25-4.45c5.08-1.71,10.13-3.49,15.14-5.29
		c8.66-3.11,12.44-2.16,13.91,4.44c2.65,11.85,0.19,23.48-5.23,34.81c-5.57,11.65-13.98,22.36-24.04,32.47
		c-7.19,7.23-6.52,14.96-3.36,22.72c1.87,4.6,6.37,5.4,12.52,2.46c8.02-3.82,13.47-9.32,19.23-14.58
		C601.84,222.15,603.46,220.37,605.75,218.07z"/>
	<path d="M62.43,277.05c-17.67-1.18-27.85-7.7-31.6-21.18c-5.18-18.58-0.08-36.49,9.19-53.95c6.69-12.59,16.11-24.23,28.37-34.76
		c5.81-4.99,13.46-7.52,22.61-8.18c2.97-0.21,5.79-0.29,6.56,2.35c2.8,2.22,0.37,3.69-1.29,5.55
		c-19.67,21.96-33.16,45.24-32.23,71.52c0.12,3.3,0.53,6.56,2.33,9.66c3.47,5.95,10.81,7.43,18.4,3.69
		c4.42-2.18,7.82-5.05,10.7-8.17c15.66-16.88,26.03-35.09,29.6-54.99c0.58-3.26,0.68-6.55,0-9.82c-0.32-1.55-1.02-3.13-3.84-3.36
		c-2.29-0.18-3.94,0.83-4.67,2.08c-4.25,7.11-11.99,13.83-2.02,21.92c5.37,4.34,0.49,13.68-7.59,17.2
		c-7.97,3.48-17.33,1.98-22.9-3.59c-6.47-6.47-5.69-13.9-3.98-20.76c3.55-14.17,12.71-26.25,31.8-34.14c7.1-2.93,14.1-3,20.01-0.58
		c7.03,2.89,11.88,7.79,11.33,13.93c-0.76,8.6,0.46,17.27-0.27,25.74c-0.99,11.2-5.5,22.28-14.95,32.11
		c-4.43,4.61-6.42,10.2-9.84,15.26c-5.95,8.84-15.24,15.9-24.77,22.81c-3.38,2.45-8.12,4.04-11.59,6.66
		C76.52,278.02,69.18,276.87,62.43,277.05z"/>
	<path class="st13" d="M303.13,267.27c-3.21,9.24-8.09,18.02-15.82,25.99c-2.02,2.08-4.26,4.09-6.69,5.96
		c-9.31,7.15-20.95,9.74-29.15,6.6c-8.33-3.18-11.84-12.2-8.26-20.88c3.04-7.37,10.92-12.33,20.44-17.93
		c-16.57,0.23-20.83-6.62-23.07-14.95c-5.06-18.8,3.96-34.61,22.41-48.2c11.81-8.7,21.08-9.46,36.63-3.92
		c4.86,1.73,7.02-1.46,10.48-2.22c3.3-0.73,5.74-4.14,9.65-2.31c4.26,1.99,1.22,5.04,0.41,7.48c-4.79,14.11-6.3,28.57-10.06,42.79
		c-0.27,1.01-1.26,2.24,1.04,3.45c2.34-1.43,4.76-2.92,7.29-4.47c4.04,8.41,2.33,11.94-7.93,16.31c-2.87,1.22-5.9,2.25-8.87,3.39
		c-2.94,3.32-8.48,3.87-12.91,5.63c-3.91,1.54-8.22,2.62-11.5,4.84c-6.39,3.47-12.42,7.18-16.58,12.05
		c-0.95,1.12-1.85,2.78,0.31,3.58c2.31,0.85,3.38-0.79,4.38-1.88c1.19-1.31,1.97-2.77,2.43-4.26c1.43-4.63,4.81-8.25,11.13-10.46
		c5.66-2.7,12.1-4.43,18.18-6.6C299.07,266.49,301.12,265.98,303.13,267.27z"/>
	<path d="M424.05,94.67c-12.47,0-24.96-0.09-37.43,0.03c-4.67,0.05-6.81-0.98-6.47-4.33c0.29-2.88-0.02-5.79,0.1-8.68
		c0.05-1.12,0.25-3.13,0.87-3.22c9.53-1.43,5.69-6.57,5.95-10.24c0.49-7.12,0.27-14.27,0.08-21.4c-0.07-2.97,2.11-6.85-5.61-7.41
		c-1.82-0.13-1.5-1.88-1.51-3c-0.07-3.09,0.2-6.18-0.1-9.26c-0.31-3.22,1.43-4.45,6.27-4.43c25.25,0.1,50.48,0.1,75.72,0
		c4.74-0.02,6.61,1.09,6.42,4.37c-0.29,4.82-0.22,9.65-0.02,14.47c0.12,2.9-1.31,4.31-5.83,4.16s-9.07-0.02-13.61-0.05
		c-1.99-0.01-4.06,0.03-4.62-1.78c-0.48-1.58,0.37-3.88-3.41-3.94c-5.37-0.09-11.42-0.91-15.92,0.49c-4.28,1.33-1.75,5.57-1.78,8.53
		c-0.03,2.55,3.26,2.14,5.73,2.21c1.7,0.05,3.43,0.14,5.1-0.01c5.44-0.49,8.05,0.88,7.32,4.77c-0.22,1.14-0.27,2.33,0.02,3.47
		c1.27,5.19-2,7.12-9.4,6.31c-6.9-0.75-9.26,1.03-9.24,5.96c0.03,4.85,2.14,6.67,9.17,6.02c5.3-0.49,12.5,1.79,12.96-4.85
		c0.09-1.25,2.75-1.03,4.38-1.05c4.54-0.05,9.07,0.07,13.61-0.03c3.99-0.09,5.59,1.05,5.49,3.78c-0.17,4.82-0.29,9.65,0.03,14.47
		c0.24,3.51-1.66,4.77-6.85,4.7C449.02,94.56,436.53,94.69,424.05,94.67z"/>
	<path class="st8" d="M62.43,277.05c16.94-2.87,28.87-10.48,38.82-19.58c24.28-22.23,38.35-47.08,40.25-74.91
		c0.39-5.62-0.12-11.23-3.41-16.49c-5.27-8.45-16.6-10.54-27.83-5.78c-20.49,8.68-30.22,33.36-26.47,45.59
		c1.89,6.15,7.65,10.55,13.81,10.25c8.26-0.4,12.33-4.4,14.63-9.2c1.43-2.97,1.92-6.22-4.11-7.6c-3.25-0.75-4.04-2.66-3.74-4.68
		c1.24-8.18,4.77-15.85,11.67-22.67c1.77-1.74,4.03-3.65,7.53-3.17c3.52,0.49,4.25,2.88,5.11,4.92c1.95,4.54,1.56,9.23,0.83,13.8
		c-3.48,21.91-14.76,41.92-33.06,60.02c-5.79,5.73-12.9,12.25-24.69,9.5c-10.91-2.54-11.79-10.35-12.1-17.12
		c-1.24-26.99,11.08-51.17,33.78-73.08c1.8-1.74,3.99-3.26,4.13-5.53c5.71,0.23,9.12-2.84,13.37-4.54
		c8.12-3.25,17.91-3.67,24.13-0.39c9.92,5.25,12.44,10.7,9.57,17.93c-3.52,8.87-1.72,17.35,5.84,25.17
		c1.87,1.93,4.49,1.13,6.85,1.34c1.38,2.36-1.33,3.44-3.14,4.89c-8.89,7.09-13.25,14.77-6.64,23.89c1.72,2.36,1.94,5-0.25,7.22
		c-5.5,5.55-8.44,11.7-10.3,18.16c-9.5-1.47-11.79-5.83-6.08-11.99c2.68-2.91,6.46-5.49,5.42-9.36c-0.44-1.63-0.2-3.87-3.91-3.62
		c-2.51,0.17-4.67,1.03-5.03,3.26c-1.04,6.66-8.41,12.48-4.94,19.84c1.16,2.45-2.4,4.31-6.34,4.22c-6.51-0.15-9.26,2.24-9.85,6.19
		c-0.56,3.65-3.28,5.38-8.7,5.74c-4.37,0.29-8.7,1.87-10.53,4.39c-5.15,7.03-12.62,6.57-21.32,3.99
		C64.68,277.36,63.52,277.26,62.43,277.05z"/>
	<path d="M231.81,57.25c0-3.86-0.14-7.72,0.03-11.57c0.25-5.42-6.51-9.43-5.18-15.42c1.61-7.29,0.41-7.42,11.49-7.43
		c5.96-0.01,11.91,0.13,17.86-0.03c4.47-0.13,6.1,1.14,5.9,4.09c-0.22,3.07-0.02,6.17-0.07,9.26c-0.02,1.12,0.42,2.95-1.17,3.13
		c-8.87,1.01-5.74,5.64-5.93,9.01c-0.46,8.09,0.07,16.21-0.7,24.29C252.6,87.55,239.62,95.7,217.64,96
		c-23.21,0.31-36.44-6.97-39.33-22c-1.8-9.39-0.53-18.88-0.87-28.32c-0.08-2.54,1.09-5.18-4.83-6.19c-3.86-0.67-1.95-4.02-2-6.16
		c-0.24-10.48-0.14-10.48,15.02-10.48c8.51,0,17.02,0.14,25.52-0.05c4.98-0.1,7.63,0.89,6.88,4.55c-0.97,4.82,2.36,9.93-4.18,14.45
		c-2.31,1.59-0.66,5.93-0.59,9.01c0.14,7.13,0.15,14.27,0.76,21.39c0.31,3.63,2.29,6.97,9.09,6.89c6.51-0.07,7.87-3.5,8.19-6.79
		c0.51-4.99,0.14-10.02,0.14-15.02C231.55,57.25,231.69,57.25,231.81,57.25z"/>
	<path d="M534.51,236.23c5.49,9.28-1.09,18.5-15.63,22.08c-10.55,2.6-14.9-0.12-21.93-13.84c-4.37,3.69-8.21,7.51-12.88,10.77
		c-13.4,9.35-28.37,6.89-34.4-5.47c-10.18-20.79,7.7-50.35,36.41-60.23c9.04-3.11,17.11-2.47,23.82,2.46
		c2.75,2.03,4.64,2.37,7.63,0.59c2.57-1.51,5.33-2.88,8.07-4.25c2.74-1.37,5.61-3.11,9.19-1.72c3.99,1.54,2.07,4.1,1.41,6.25
		c-3.77,12.26-9.12,24.28-11.72,36.7c-0.12,0.58-0.36,1.13-0.42,1.71c-0.25,2.46-1.83,5.44,1.17,7.15
		C529.04,240.64,531.13,236.55,534.51,236.23z"/>
	<path class="st13" d="M363.04,237.8c2.09-12.1,5.86-23.94,11.64-35.48c2.68-5.37,17.33-11.53,25.38-10.46
		c3.79,0.51,3.84,2.41,2.99,4.49c-1.34,3.25-2.65,6.51-4.04,9.88c5.06,0.45,5.95-2.38,7.99-3.92c5.32-4.02,10.28-8.27,17.57-10.77
		c8.46-2.9,14.83-1.25,18.48,4.74c2.38,3.92,1.85,7.94,0.8,11.96c-2.5,9.51-6.95,18.67-10.57,27.98c-1.02,2.63-4.04,6.08-0.27,8.11
		c3.47,1.88,5.37-2.8,9.72-2.73c0.03,3.8,5.25,7.64,0.37,11.31c-6.49,4.89-13.66,9.46-24.11,9.93c-7.87,0.35-13.9-3.81-15.22-10.36
		c-1.38-6.81,0.31-13.45,2.94-20.01c2.8-7,5.62-13.99,7.63-21.19c-15.46,10.26-26.39,21.88-25.43,37.25
		c0.02,0.38-0.02,0.77-0.03,1.16c-0.42,10.56-3.33,12.85-18.99,14.44c-8.55,0.88-5.06-4.16-6.73-6.66
		C357.87,250.93,361.08,244.36,363.04,237.8z"/>
	<path d="M488.79,82.96c0-0.58,0-1.16,0-1.73c0-9.76,2.87-11.25,17.52-9.47c2.7,0.32,3.86,1.26,4.76,2.78
		c1.05,1.8,2.33,3.59,4.81,4.68c4.55,2,9.85,3.41,13.64-0.13c3.65-3.41,0.2-6.29-4.25-8.13c-6.76-2.81-13.91-5.21-20.66-8.05
		c-12.27-5.18-17.62-12.84-16.21-22.58c2.17-14.94,22.27-22.61,42.24-16.2c2.99,0.96,4.54,2.45,8.53-0.47
		c3.4-2.48,11.57-1.54,17.07-0.31c4.06,0.91,1.46,4.46,2,6.81c0.25,1.13,0.09,2.31,0.03,3.47c-0.46,10.77,3.64,9.68-15.31,9.82
		c-3.6,0.02-5.78-0.79-7.22-3.06c-0.87-1.36-2.31-2.77-4.04-3.64c-4.13-2.05-9.16-3.37-12.73,0.08c-3.31,3.21-0.34,5.72,4.15,7.5
		c8.09,3.21,16.34,6.26,24.04,9.86c18.06,8.43,20.17,26.37,4.49,36.25c-9.96,6.26-21.53,6.32-33.37,3.27
		c-4.28-1.1-6.66-2.15-11.47,0.47c-3.52,1.92-11.49,1.63-16.33-0.18c-3.82-1.43-1.16-5.35-1.66-8.13
		C488.64,84.91,488.79,83.93,488.79,82.96z"/>
	<path d="M320.65,94.69c-12.2,0-24.41-0.14-36.61,0.07c-5.28,0.09-7.14-1.21-6.69-4.69c0.32-2.68,0.08-5.4,0.07-8.1
		c-0.02-2.16-0.32-4.34,4.47-4.34c3.08,0,3.33-1.73,3.33-3.34c0.02-10.23,0.03-20.46,0-30.69c0-1.13,0.14-2.36-1.43-3.18
		c-1.99-1.04-6.27,0.3-6.29-2.76c-0.03-4.24-0.12-8.49,0.12-12.73c0.12-2.17,2.89-2.06,5.11-2.06c13.91-0.03,27.81,0.02,41.73-0.06
		c3.96-0.02,5.69,1.02,5.54,3.76c-0.17,3.28,0.02,6.56-0.07,9.84c-0.03,1.29,0.32,3.29-2.26,3.25c-8.65-0.14-6.51,4.04-6.56,7.22
		c-0.14,8.3,0.37,16.62-0.2,24.9c-0.36,5,2.34,6.64,9.23,5.95c1.66-0.16,3.43-0.15,5.1,0c5.86,0.52,8.21-1.03,7.82-5.14
		c-0.2-2.07-1.97-5.43,2.17-6.08c5.95-0.94,12.4-1.11,18.42,0.22c1.99,0.44,1.27,2.4,1.29,3.71c0.05,6.56-0.22,13.14,0.12,19.69
		c0.19,3.59-1.85,4.69-6.91,4.62C345.62,94.57,333.13,94.69,320.65,94.69z"/>
	<path d="M52.85,326.85c-8.17-0.14-14.68-1.32-20.22-4.3c-9.84-5.28-8.77-12.85,2.48-16.57c13.9-4.6,28.93-6.75,44-8.61
		c46.69-5.78,93.95-7.71,141.27-9.08c2.63-0.08,6.66-1.12,7.73,0.97c1.75,3.37,2.53,7.07,2.82,10.66c0.1,1.31-3.25,1.18-5.13,1.31
		c-55.56,3.78-109.53,12.43-162.41,24.43C59.6,326.5,55.71,327.08,52.85,326.85z"/>
	<path class="st13" d="M321.43,112.83c15.31,0,30.63-0.07,45.94,0.01c13.81,0.07,22.66,5.81,23.17,14.84
		c0.56,9.67-7.22,16.73-20.95,16.93c-31.74,0.45-63.52,0.42-95.26,0.02c-13.66-0.17-22.24-7.39-21.75-16.58
		c0.49-9.17,9.7-15.14,23.75-15.19C291.36,112.77,306.39,112.83,321.43,112.83z"/>
	<path class="st13" d="M126.81,23.94c6.81-0.01,13.63-0.03,20.44,0c3.08,0.01,7.07-0.3,6.51,2.93c-0.58,3.33,3.53,8.08-2.99,9.68
		c-5.1,1.26-4.72,3.14-4.77,5.58c-0.22,11.38-0.27,22.77-0.71,34.15c-0.37,9.71-7.82,15.45-21.75,17.03
		c-4.18,0.47-8.48,0.73-12.71,0.65c-15.75-0.29-13.78,0.59-13.8-10.61c0-1.72,0.65-2.98,3.79-2.97c5.71,0.03,7.03-2.45,7.03-5.75
		c0-11.2,0.1-22.39,0.07-33.59c0-1.42,0.88-3.57-2.19-3.86c-12.47-1.16-4.77-7.46-6.17-11.32c-0.7-1.93,2.92-1.89,5.11-1.91
		C112.05,23.92,119.42,23.94,126.81,23.94z"/>
	<path class="st13" d="M452.32,402.55c-12.47,5.86-23.09,10.85-33.72,15.84c-27.08,12.72-54.13,25.48-81.26,38.15
		c-12.61,5.89-20.37,5.92-32.76,0.13c-36.24-16.94-72.43-33.95-108.62-50.95c-1.55-0.73-3.58-1.19-4.26-3.48
		c10.6,0.08,20.47-1.47,30.48,3.44c29.46,14.43,59.75,28.09,89.49,42.28c6.61,3.15,11.79,3.12,18.4-0.05
		c27.61-13.22,55.56-26.11,83.32-39.18C429.48,401.16,429.43,401.11,452.32,402.55z"/>
	<path d="M136.99,255.01c-3.48-4.38-3.6-8.6,0.71-12.85c4.64-4.56,9.09-8.35,3.38-15.07c-6.46-7.61,3.6-21.49,16.24-26.26
		c9.79,0.69,12.37,2.58,11.96,9.13c-0.17,2.66-0.85,5.31-1.46,9.02c7.92-2.69,10.91-7.21,14.49-11.3c1.44-1.64,2.4-3.49,3.53-5.25
		c2.09-3.22,6.44-3.26,10.13-2.53c3.82,0.75,2.94,3.28,2.07,5.41c-3.79,9.28-7.65,18.54-11.28,27.85c-1.44,3.71-2.55,7.5-3.53,11.29
		c-0.65,2.46-1.33,5.34,2.12,6.96c3.67,1.72,5.83-1.49,8.85-2.14c6.64,13.11-3.81,18.34-20.27,22.94
		c-5.62,1.57-10.36-0.72-13.57-4.15c-5.81-6.22-4.94-12.94-2.72-19.58c1.68-5.05,4.43-9.94,6.85-15.17
		c-4.5-1.04-5.86,1.29-7.22,3.24c-3.53,5.07-7.95,9.77-12.64,14.36C142.73,252.76,141.15,255.06,136.99,255.01z"/>
	<path class="st13" d="M199.85,249.25c-0.48-15.04,5.88-29.23,11.62-43.51c0.78-1.94,2.62-2.81,5.2-3.36
		c5.13-1.1,10.18-2.36,15.32-3.41c7.48-1.53,9.33-0.31,7.51,4.99c-3.92,11.43-8.04,22.82-11.84,34.27c-0.87,2.6-0.92,5.34-1.07,8.03
		c-0.07,1.26-0.17,2.67,2.63,3.07c8.58,1.24,11.37,7.61,5.42,12.35c-2.02,1.61-4.18,3.17-6.61,4.47c-5.06,2.7-10.16,6.35-17.33,4.09
		c-7.36-2.32-9.91-7.18-10.75-12.32C199.47,255.05,199.85,252.12,199.85,249.25z"/>
	<path class="st13" d="M359.01,256.12c-3.74,4.55-9.75,7.5-16.51,9.34c-9.02,2.45-17.53-3.89-18.48-12.69
		c-1.72-15.85,2.65-31.1,9.14-46.16c1.22-2.85,0.7-6.85,5.11-8.23c6.9-2.15,14.32-3.84,21.78-4.74c4.79-0.58,4.67,2.4,3.74,4.9
		c-2.94,7.85-5.79,15.7-8.66,23.56c-2.26,6.18-4.5,12.36-4.59,18.79c-0.03,2.61,0.48,5.05,5.67,2.65c2.21-0.76,4.33-0.34,4.49,1.24
		C361.06,248.58,363.38,252.61,359.01,256.12z"/>
	<path class="st14" d="M203.6,121.85c11.89,0,23.79-0.08,35.66,0.08c2.17,0.02,7.58-0.95,5.86,1.68c-1.73,2.65,3.41,8.16-6.34,8.08
		c-18.4-0.16-36.82,0.22-55.2-0.16c-7.85-0.16-10.26,1.41-9.85,6.74c0.65,8.45-0.05,16.94,0.27,25.41c0.15,3.7-2.06,4.6-7,4.52
		c-4.69-0.08-8.14-0.1-8.02-4.47c0.32-12.51,0.31-25.03,0.03-37.54c-0.08-3.84,2.48-4.41,7.22-4.37
		C178.7,121.94,191.15,121.85,203.6,121.85z"/>
	<path class="st14" d="M442.23,121.85c11.62,0,23.26,0.13,34.88-0.06c5.08-0.08,7,0.99,6.93,4.59c-0.25,12.34-0.31,24.69,0.02,37.03
		c0.1,4.07-2.5,4.64-7.63,4.8c-6.01,0.17-7.14-1.63-7.03-5.15c0.24-8.68-0.25-17.37,0.2-26.03c0.24-4.46-2.19-5.56-8.36-5.48
		c-17.86,0.24-35.76-0.3-53.59,0.23c-9.91,0.29-6.13-4.31-6.98-7.21c-1.34-4.63,4.32-2.55,6.68-2.6
		C418.97,121.72,430.6,121.85,442.23,121.85z"/>
	<path class="st15" d="M466.08,378.23c10.48,0,20.98,0.14,31.47-0.06c5.05-0.09,6.24,1.4,6.25,4.48c0.02,3.13-1.33,4.49-6.29,4.46
		c-21.54-0.13-43.09-0.14-64.63,0.01c-5.08,0.03-6.17-1.44-6.2-4.51c-0.03-3.11,1.21-4.54,6.25-4.45
		C443.96,378.38,455.02,378.24,466.08,378.23z"/>
	<path class="st16" d="M175.69,387.07c-10.5,0-21-0.13-31.48,0.06c-4.88,0.08-6.44-1.13-6.34-4.37c0.08-2.97,0.78-4.61,6.01-4.58
		c21.56,0.15,43.12,0.15,64.66,0c5.27-0.03,5.9,1.71,6.01,4.63c0.14,3.35-1.87,4.37-6.54,4.3
		C197.25,386.96,186.46,387.07,175.69,387.07z"/>
	<path class="st17" d="M465.11,351.4c-10.77,0-21.56-0.15-32.33,0.06c-5.23,0.1-6.05-1.62-6.07-4.59c-0.02-2.89,1.27-4.17,5.83-4.15
		c21.56,0.1,43.12,0.1,64.66-0.01c4.67-0.02,6.63,0.97,6.56,4.31c-0.05,3.13-1.36,4.53-6.32,4.44
		C486.67,351.27,475.9,351.4,465.11,351.4z"/>
	<path class="st18" d="M464.38,370.13c-10.19,0-20.4-0.14-30.6,0.06c-4.89,0.09-7.24-0.66-7.1-4.43c0.12-3.36,2.04-4.24,6.64-4.22
		c21.25,0.12,42.51,0.12,63.76,0.01c4.54-0.02,6.59,0.79,6.73,4.18c0.14,3.77-2.26,4.52-7.12,4.44
		C485.92,370.01,475.15,370.13,464.38,370.13z"/>
	<path class="st18" d="M176.23,351.4c-10.45,0-20.91-0.13-31.36,0.06c-4.93,0.09-7.14-0.76-7.02-4.47c0.1-3.28,1.73-4.31,6.42-4.29
		c21.19,0.12,42.39,0.09,63.58,0.01c4.42-0.01,6.69,0.69,6.73,4.16c0.03,3.6-1.95,4.66-6.98,4.58
		C197.15,351.27,186.68,351.4,176.23,351.4z"/>
	<path class="st18" d="M176.52,370.13c-10.77,0-21.56-0.13-32.33,0.06c-4.83,0.08-6.34-1.05-6.32-4.31c0.02-3.29,1.66-4.33,6.42-4.3
		c21.27,0.13,42.54,0.13,63.81,0c4.81-0.02,6.37,1.12,6.44,4.37c0.07,3.39-1.9,4.31-6.54,4.24
		C197.52,370.02,187.02,370.13,176.52,370.13z"/>
	<path class="st19" d="M401.81,367.49c1.17,4.61-2.12,10.31,2.28,15.56c0.76,0.91,0.51,2.3-0.8,3.22
		c-3.74,2.67-20.95-0.23-22.34-3.93c-2.14-5.65-1.89-11.43-0.12-17.11c0.82-2.66,3.31-4.38,7.66-4.53c6.1-0.21,5.9-2.31,2.46-4.63
		c-2.21-1.49-3.02-3.06-1.27-4.49c2.24-1.85,5.79-0.97,8.8-0.88c3.01,0.08,3.36,1.66,3.36,3.32
		C401.79,358.24,401.81,362.47,401.81,367.49z"/>
	<path class="st19" d="M313.94,361.27c2.26,0,4.52-0.01,6.78,0c2.74,0.01,5.08,1.16,3.91,2.78c-5.39,7.53-1.5,15.51-2.97,23.19
		c-1.16,5.99-9.53,9.64-17.33,7.63c-1.7-0.44-4.25-0.75-3.47-2.63c0.61-1.49,1.68-2.99,4.72-2.41c1.66,0.31,3.28,0.64,4.94,0.07
		c1.33-0.45,2.41-1.14,2.26-2.21c-0.15-1.06-1.51-0.84-2.6-0.81c-6.76,0.21-8.82-3-9.57-6.59c-0.7-3.4-0.85-6.91-0.51-10.34
		C300.85,362.24,302.48,361.36,313.94,361.27z"/>
	<path class="st20" d="M270.48,387.11c-6.2-0.03-12.42-0.07-18.62-0.08c-5.5-0.01-5.83-2.01-4.37-4.96
		c4.4-8.82,4.32-17.69,0.07-26.51c-1.41-2.95-1.36-4.91,4.2-4.99c2.82-0.03,5.62-0.17,8.43-0.27c4.62,1.16,3.74,3.54,2.28,5.65
		c-5.5,8.02-1.17,16.15-1.31,24.28c3.21-1.76,1.92-4.07,2.19-6.14c0.22-1.73-0.25-3.54,3.58-3.69c3.81-0.15,6,0.94,6.44,3.45
		C274.18,378.46,272.48,382.8,270.48,387.11z"/>
	<path class="st16" d="M352.91,381.52c1.16-5.26,2.34-10.47-0.95-15.63c-1.97-3.08-0.32-4.75,4.79-4.66
		c2.79,0.05,5.62,0.12,8.38-0.1c5.37-0.45,8.12,1.35,8.55,4.69c0.88,6.71-0.92,13.59,2.7,20.13c-11.55,1.57-11.96,1.25-10.81-8.4
		c0.19,1.32-0.46,2.58-0.54,3.87c-0.12,1.63,1.99,3.69-0.61,4.76c-2.91,1.19-6.73,0.82-9.84,0.31
		C350.28,385.8,351.7,383.47,352.91,381.52z"/>
	<path class="st15" d="M274.35,370.98c0.1-0.38,0.19-0.76,0.32-1.13c1.63-4.49,2.57-9.98,12.03-8.92c8.68,0.98,8.53,6.24,8.8,10.97
		c0.17,2.83-1.07,4.44-5.67,4.16c-1.39-0.08-2.91-0.1-4.2,0.18c-3.09,0.69-2.43,2.45-1.56,3.81c1.48,2.32,2.74,0.97,3.86-0.31
		c1.73-1.98,4.01-1.02,5.83-0.25c2.19,0.91,1.22,2.35,0.46,3.59c-3.21,5.29-11.3,5.58-18.09,0.66
		C272.94,379.66,270.9,375.5,274.35,370.98z"/>
	<path class="st15" d="M326.93,373.99c-0.1-3.08,0.07-6.15,1.82-9.07c1.53-2.55,4.16-4.08,8.29-4.18c4.15-0.1,7.14,1.28,8.66,3.8
		c1.05,1.74,1.58,3.66,2.06,5.53c0.9,3.69,0.27,6.61-7.02,6.02c-1.83-0.15-4.35-0.28-4.81,1.5c-0.27,1.03-0.14,2.73,0.82,3.18
		c2.7,1.31,2.67-1.19,4.11-1.79c2.09-0.87,3.92-0.03,5.45,0.66c1.75,0.8,0.87,2.02,0.15,3.11c-1.73,2.63-4.28,4.51-8.87,4.58
		c-4.98,0.08-7.8-1.72-9.33-4.8C326.85,379.75,326.92,376.88,326.93,373.99z"/>
	<path class="st21" d="M351.62,186.01c-5.33-0.1-10.26-1.24-13.44-4.12c-3.02-2.74,1.63-4.86,2.57-7.31c0.68-1.8,2.5-2.32,5.18-1.92
		c6.69,1.01,13.42,1.17,20.15,0.14c2.97-0.45,4.11,0.09,3.67,2.33C368.59,181.05,360.42,186.06,351.62,186.01z"/>
	<path class="st21" d="M245.19,178.8c-0.42,9.82-15.53,15.38-28.29,9.72c-3.87-1.72-4.35-3.54-2.24-6.27
		c1.85-2.43,3.25-4.37,8.17-3.08C229.97,181,237.29,179.78,245.19,178.8z"/>
	<path class="st22" d="M315.36,329.41c3.47,0.91,10.14-1.19,10.07,0.44c-0.2,5.48,11.25,6.83,8.58,12.68
		c-0.48,1.05-0.15,2.3-0.03,3.45c0.7,6.3,0.15,6.57-9.43,6.12c-3.67-0.17-4.93-0.92-4.3-3.56c1.19-5.1,0.92-10.24-0.12-16.9
		c-1.53,2.84-2.31,4.29-3.09,5.73C312.86,335.06,312.56,332.38,315.36,329.41z"/>
	<path class="st23" d="M315.36,329.41c1.82,2.53,1.63,5.26,1.66,7.96c-9.26,2.3-3.84,7.08-3.69,10.84c0.05,1.14,2.33,2.46-0.17,3.35
		c-2.55,0.91-5.61,0.91-8.16,0.02c-2.51-0.88-0.88-2.03,0.03-3.29c3.02-4.15,0.63-8.61,1.51-13.28c-1.72,1.17-1.36,3.7-4.59,2.68
		c-2.99-0.95-1.65-3.03-1.78-4.64c-0.14-1.7-0.37-3.73,3.36-3.8C307.48,329.18,311.42,329.34,315.36,329.41z"/>
	<path class="st24" d="M117.77,6.13c36.9,0.6,73.77-0.86,110.65-1.21c6.22,0.38,12.62-0.82,18.65,1.09
		c-19.76,0.37-39.45,1.93-59.26,1.32c-15.72,1.19-31.48,0.15-47.21,0.53c-7.02,0.17-14.07-0.58-21.03,0.44
		c-1.17,0.03-2.33,0.07-3.5,0.1C116.63,7.65,117.21,6.9,117.77,6.13z"/>
	<path class="st25" d="M336.96,344.86c0.17-1.63,0.2-2.59,0.37-3.54c0.53-2.8,1.58-5.66,6.68-5.57c5.52,0.09,6.41,3.12,6.68,6.17
		c0.24,2.59-3.23,4.76-1.31,7.73c0.71,1.1-2.41,2.4-4.81,2.59c-2.84,0.22-5.13-0.72-6.08-2.45
		C337.55,348.04,337.33,346.1,336.96,344.86z"/>
	<path class="st3" d="M274.35,370.98c0.59,4.25,1.17,8.52,1.77,12.77c-5.28-1.53-2.12,3.51-5.64,3.36
		c2.48-4.26,1.02-8.71,1.27-13.08c0.12-1.93-0.85-3.42-4.32-3.26c-3.13,0.14-2.96,1.73-3.45,3.27c-0.76,2.38,2.33,6.77-2.58,6.71
		c-4.42-0.05-2.4-4.55-2.11-6.9c0.83-6.6-3.45-13.63,3.57-19.82c1.43-1.25-0.48-2.89-2.67-3.72c4.3,0.45,5.18,2.76,3.72,4.69
		c-5.56,7.35-1.6,15.06-2.75,22.55c2.17-2.08-0.1-4.99,2.92-6.76C267.42,368.85,270.95,369.97,274.35,370.98z"/>
	<path class="st26" d="M276.01,273.65c7.76-4.08,16.4-7.09,25.62-9.32c0.49,0.98,1,1.96,1.5,2.95c-7.82,2.58-15.61,5.15-23.43,7.73
		C278.17,274.92,276.69,274.79,276.01,273.65z"/>
	<path class="st27" d="M352.91,381.52c-0.61,3.54,1.73,4.96,6.86,4.62c5.52-0.36,3.74-2.63,3.48-5c-0.48-4.67-0.14-9.37,1.07-14.12
		c3.62,4.08,2.72,8.63,2.23,12.89c-0.63,5.48,2.62,6.98,9.82,6.02c-7.32,2.89-15.27,1.51-22.75,0.94
		C349.55,386.57,350.16,383.57,352.91,381.52z"/>
	<path class="st10" d="M119.57,8.31c5.37-1.74,11.09-0.98,16.67-1.01c17.19-0.08,34.37,0.01,51.56,0.03
		c-7.68,1.83-15.63,0.95-23.46,1.03C149.42,8.49,134.51,8.34,119.57,8.31z"/>
	<path class="st28" d="M359.01,256.12c-1.53-4.14,3.01-8.9-2.82-12.59c2.79-1.63,5.56-3.28,6.85-5.74
		c0.02,6.56,0.03,13.13,0.05,19.7C361.73,257.04,360.37,256.57,359.01,256.12z"/>
	<path class="st29" d="M588.93,154.66c1.17,13.38-3.99,25.55-15,36.59C577.18,178.72,580.2,166.15,588.93,154.66z"/>
	<path class="st30" d="M576.14,153.35c-0.61-0.42-1.22-0.83-1.83-1.25c-0.82-0.64-0.49-1.66-1.63-2.18c1.48-0.92,3.26-1.22,5.2-1.22
		c0.37,0.6,0.78,0.64,1.21,0.02c2.45,1.84,2.16,3.73,0.24,5.66C578.6,153.52,577.18,153.72,576.14,153.35z"/>
	<path class="st31" d="M572.67,149.92c2.41,0.08,2.11,1.1,1.63,2.18C572.59,151.78,572.59,150.86,572.67,149.92z"/>
	<path class="st32" d="M576.14,153.35c1.72-0.6,3.02-0.61,3.18,1.03C578.26,154.03,577.19,153.68,576.14,153.35z"/>
	<path class="st33" d="M579.08,148.71c-0.22,0.46-0.42,0.91-0.65,1.37c-0.19-0.46-0.37-0.94-0.56-1.4
		C578.28,148.69,578.67,148.69,579.08,148.71z"/>
	<path class="st34" d="M49.28,248.73c3.31,0.14,4.13,1.56,4.23,3.13c0.14,2.05-1.82,3.18-4.57,3.39c-2.99,0.22-3.77-1.33-3.74-2.95
		C45.26,250.36,47.04,249.26,49.28,248.73z"/>
	<path class="st35" d="M265.94,235.46c0.9-7.87,3.92-16.8,11.65-24.73c2.41-2.47,5.54-4.95,10.31-3.96
		c4.84,0.99,4.06,4.31,3.79,6.92c-0.88,8.87-3.31,17.59-8.31,25.82c-2.17,3.58-4.03,8.11-11.69,7.89
		C267.64,247.3,265.53,243.07,265.94,235.46z"/>
	<path class="st36" d="M276.01,273.65c1.22,0.45,2.45,0.9,3.69,1.34c-3.64,1.74-5.52,4.15-6.58,7.07c-1.48,4.1-3.16,8.2-6.93,11.67
		c-2.04,1.87-4.38,3.86-8.36,2.72c-3.72-1.07-4.08-3.5-3.86-5.88c0.31-3.41,2.57-6.26,5.93-8.71
		C264.53,278.48,269.69,275.53,276.01,273.65z"/>
	<path class="st35" d="M502.83,207.59c-1.53,9.95-5.52,19.73-13.42,28.64c-2.29,2.59-5.16,5.81-10.47,4.66
		c-4.83-1.05-4.59-4.63-4.47-7.48c0.46-10.42,4.96-20.12,12.49-29.14c2.45-2.93,5.22-6.89,11.37-5.6
		C504.12,199.9,502.4,204.07,502.83,207.59z"/>
	<path class="st37" d="M371.89,128.78c2.4,2.24,1.46,4.84,1.16,7.21c-0.48,3.65-3.86,4.4-8.34,2.72c-4.81-1.81-5.11-1.87-9.29,0.38
		c-2.33-1.14-0.61-2.35-0.08-3.5c1.12-2.44,4.83-5.06-2.84-6.03c-3.58-0.45-4.28-9.26-1.05-10.83c6.12-2.98,7.2,1.39,9.87,3.37
		c1.24,0.47,2.57,1.11,2.38,2.1C362.85,128.78,367.16,128.92,371.89,128.78z"/>
	<path class="st38" d="M322.35,128.81c0-2.11-0.31-4.26,0.07-6.34c0.58-3.12,3.41-4.8,8.16-4.63c4.83,0.17,7.1,2.14,7.22,5.28
		c0.14,3.66,0.14,7.33,0.02,10.98c-0.1,3.4-2.5,5.56-7.76,5.5c-5.18-0.06-7.58-2.22-7.83-5.58c-0.12-1.73-0.02-3.47-0.02-5.2
		C322.24,128.81,322.29,128.81,322.35,128.81z"/>
	<path class="st38" d="M310.5,128.71c0,1.93,0.07,3.85-0.02,5.78c-0.14,3.24-2.62,5.03-7.39,5.07c-4.71,0.05-7.63-1.74-7.97-4.83
		c-0.42-3.82-0.37-7.7-0.12-11.53c0.22-3.35,3.02-5.42,8.14-5.36c5.27,0.06,7.46,2.24,7.37,5.68
		C310.47,125.25,310.5,126.98,310.5,128.71z"/>
	<path class="st37" d="M281.21,128.66c0.02,2.5,0.05,4.99-0.02,7.49c-0.03,1.57-0.12,3.25-3.45,3.13c-3.3-0.12-3.06-1.86-3.09-3.37
		c-0.07-2.5,0.05-4.99-0.08-7.48c-0.07-1.32,0.24-3.19-0.85-3.84c-8.8-5.19,3.41-3.97,4.35-6.25c0.32-0.79,3.08,0.73,3.11,2.26
		C281.23,123.28,281.21,125.96,281.21,128.66z"/>
	<path class="st6" d="M371.89,128.78c-6.71,1.89-8.31,0.88-10.57-6.68c1.77-1.36,3.55-2.73,6.15-4.73
		C370.53,121.28,359.79,127.51,371.89,128.78z"/>
	<path class="st5" d="M150.76,218.06c1.26-2.22-0.05-5.29,4.57-5.66c2.31-0.18,2.8,1.84,2.63,3.08c-0.29,2.2,0.02,5.15-3.91,5.78
		C150.97,221.75,151.92,219.1,150.76,218.06z"/>
	<path class="st39" d="M390.47,381.13c-2.82-4.88-2.74-9.73,0.14-14.57C393.69,371.43,393.94,376.29,390.47,381.13z"/>
	<path class="st39" d="M311,380.98c-3.38-4.77-3.25-9.56-0.02-14.33C314.19,371.43,314.46,376.21,311,380.98z"/>
	<path class="st40" d="M328.99,347.47c-3.38-2.3-2.87-4.62-0.58-7.09C328.6,342.75,328.8,345.11,328.99,347.47z"/>
	<path class="st41" d="M330.02,122.6c2.12,4.14,2.62,8.24-0.15,12.32C327.95,130.83,328.1,126.7,330.02,122.6z"/>
	<path class="st42" d="M302.47,135.45c-3.04-3.8-1.39-7.95-1.21-11.97c0.03-0.72,0.9-1.37,2.31-1.17c1.55,0.22,1.33,1.16,1.33,1.83
		c0.08,3.71,0.03,7.42,0.03,11.14C304.12,135.33,303.28,135.39,302.47,135.45z"/>
</g>
</svg>
